<svg id="737ae35a-9867-47de-8d56-8f240c4b5b79" data-name="Ebene 1" xmlns="http://www.w3.org/2000/svg" viewBox="0 0 250.15 250.16"><defs><style>.c5f0d712-c5b8-471d-9529-a8a428e4b5d7{fill:#fefefe;}.\37 360b235-ba8c-426f-b17a-1fee836615ae{fill:#fdfcf8;}.b8db9a70-a53a-4c92-a215-5ffabd01bb15{fill:#fdfcfa;}.\35 6f4c6d7-bc14-48c9-98cc-64c3cbb951f9{fill:#0e0901;}.ad160504-a112-491d-83c8-bfdbb34ebfa7{fill:#1a1203;}.c4f764ac-f9bd-4728-9b62-bd79ec3e36af{fill:#221804;}.\32 8731662-b63a-4b30-97c4-f14260c93f5c{fill:#402d08;}.\33 0cf8dd1-2de3-4b7c-9978-5cdab9e58c1c{fill:#9b711e;}.e3cd4b8d-2c8a-4251-8911-464ef0480f80{fill:#b87d0a;}.fb7e09a9-0e6c-4351-b4d1-60005ef4001c{fill:#8e6618;}.\35 663abbf-99a9-44ad-989d-9f2440806afd{fill:#201600;}.\39 f473c2a-be07-4461-9f94-18b05cc800ab{fill:#312101;}.\30 144306e-50ac-47fd-a577-f8f4bdb968c9{fill:#211601;}.\38 4c8baa2-a624-45ea-b7f9-ea4524e1f955{fill:#c68f24;}.fb8f7cb2-ffd2-4513-a1de-3958c8b0be3f{fill:#f9d795;}.d9075945-3310-49e2-82b1-5c3b6f91e716{fill:#8a6317;}.e9b61591-4041-45d3-8d1a-8c27cab85a7b{fill:#e5b047;}.\34 895ec56-beda-4470-8bd6-84a89d1ecd42{fill:#ebac32;}.\32 547a443-9e9a-4ca4-91d3-3de5b5e193ec{fill:#211500;}.f326d0e8-06f0-48da-bd68-d95e75c136a7{fill:#0a0600;}.\36 d8485e7-77be-4f91-872d-22fec1ee4f34{fill:#bb8824;}.\34 51a0b19-7601-4588-911e-5fb34facb4ae{fill:#eee1c6;}.\33 e30baaf-66fb-41c9-8a91-24ade73948fb{fill:#f6e8cc;}.d9cecfcd-075d-43b1-9273-76df79396509{fill:#72500f;}.a3e29db5-14ea-4648-ba0a-4e2c2359b6d7{fill:#3f2a02;}.af2cb5d9-a841-494b-9d53-03766f2d8ce2{fill:#e3c488;}.a0b3f0cb-00a4-40c1-9bec-9727d10ac7ff{fill:#cc911d;}.\39 4d217bc-e556-474a-bf54-11b4861c0fcc{fill:#6f4c09;}.\36 bc22f80-6f13-4dc4-b29d-4b6ecfe6ffd8{fill:#6a4f1a;}.e0b40ac4-db0b-4001-bf14-0ecb457adee5{fill:#996a10;}.\31 75947f5-472d-4511-ad4e-296b29a79681{fill:#725721;}.c82c4256-122e-4d07-addf-13a30377055f{fill:#2b1d00;}.\38 efbf8f6-bcd0-4761-99d3-d1d6942d628a{fill:#3c2700;}.b8f1ecbc-767f-49f2-88a2-28a9623f1051{fill:#9b6a08;}.\32 195e93a-8c2c-4441-870c-1a51da17cab2{fill:#f7c057;}</style></defs><title>me</title><path class="c5f0d712-c5b8-471d-9529-a8a428e4b5d7" d="M200,546.89c-7.5,0-15-.18-22.5.09-3,.11-3.59-0.61-3.59-3.59q0.16-99,.08-198c0-15.17.07-30.33-.07-45.5,0-2.5.57-3.07,3.07-3.06q122,0.11,244,0c2.5,0,3.07.56,3.06,3.06q-0.11,122,0,244c0,2.5-.56,3.07-3.06,3.07-29.33-.1-58.67-0.06-88-0.06-3.05-6.83-1.74-12.79,4-18.15,1.62-1.36,3.73-1.65,5.56-2.56,0.91-.31,1.77-0.79,2.69-1.08,3.57-.68,6.91-2.18,10.5-2.82a4.68,4.68,0,0,0,3.67-3c0.63-1.67,1.64-3.69-.67-4.74s-2.77,1.12-3.33,2.59c-2.09,5.55-7,7-12,8.49-1.11.36-2.13,0.94-3.26,1.27a16.65,16.65,0,0,0-4.45,2.24,5.16,5.16,0,0,1-7.05-1.61c-2.32-3-4.84-6.1-4-10.28,0.34-1.74,2-2.55,3.62-3.13,2.34-.85,4.78-1.39,7.11-2.25,3.86-1.43,4.72-5.19,1.62-8-7.06-6.32-8.84-14.45-7.93-23.34,0.53-5.16.8-10.2-.35-15.31-1.28-5.7.12-7.08,5.78-6.06,1.14,0.21,2.27.48,3.39,0.79a27.77,27.77,0,0,0,4.71,1.22,10.84,10.84,0,0,1,9.34,8.12c0.43,0.41.65,2.17,1.41,0.88,3.26-5.51,1.23-22-3.11-27.22-4.6-4.74-7.3-10.66-10.25-16.42-0.19-.45-0.32-0.92-0.48-1.37-1.91-5.47-1.6-6,4.14-6.6,1.27,0,2.54,0,3.81.06a6.91,6.91,0,0,0,3.52,0,11.2,11.2,0,0,0,8-1c0.13-.51-0.18,0-0.21-0.05l-0.86.42c-2.87,1.67-5.9.48-8.85,0.58a7.32,7.32,0,0,1-4-7.91c1.4-3.2,4.24-6.12,1.83-10.08-0.31-.52.55-1.09,1.16-1.39a6.32,6.32,0,0,1,3.46-.16,4.61,4.61,0,0,1,2.59,1.83,2.71,2.71,0,0,0,1.12,1c0.77-2.94-1-5.18-1.93-7.67a6.26,6.26,0,0,1-.33-1.46c0-4,2.71-3.84,5.48-3.58,1.83,0.79,3.84,1.16,5.57,2.2,3.82,2.77,4.55,7,5.5,11a10.27,10.27,0,0,1,2-3c3-3.11,2.83-3.49-1.33-5.11-1.83-.71-3.82-1.06-5.38-2.38a10.82,10.82,0,0,0-4.38-2,8.09,8.09,0,0,0-4.2-.92,4.48,4.48,0,0,1-3.63-2.39c-2.31-4.72-6.52-6.13-11.2-7.38-9.16-2.45-12.41-8.71-10-17.93,2.53-9.64,2-18.55-6.61-25.34a11.46,11.46,0,0,1-2.65-3.6c-1-1.87-1.06-5.31-4.85-3.24-0.41.23-1.21-.45-1.69-0.92-5.31-5.28-11.43-6-18.77-5-12.15,1.57-23.13,5.27-32.07,13.66-13.42,12.59-20.7,28.24-22.56,46.62-0.79,7.82-.86,15.62-1,23.44-0.09,5.94-.79,6.74-6.87,7.22-2.73.21-3.95,1.49-4,4-0.19,6.17-.59,12.36,2.42,18.11a15.06,15.06,0,0,1,1.49,5.76c0.78,8.62,4.66,13.16,12.94,15.08a5.1,5.1,0,0,1,4.14,3.87c3.76,15.15,9.6,29.91,8.9,45.92-0.21,4.83-.61,9.66-2.36,14.22-0.68,1.78-1.31,4.39-3.82,3.84-2.67-.58-3.12-3.15-3-5.63a15.57,15.57,0,0,1,.47-2.45c0.26-1.32.62-2.91-.88-3.53-1.79-.74-2.69.87-3.46,2.13a50.23,50.23,0,0,0-3.21,6.77,45,45,0,0,1-5,8.64c-2.37,3.33-5.24,6-9.29,7.21a13.19,13.19,0,0,0-5.21,2.89c-2.41,2.19-5,2.54-8.28,2.06C210.42,542,205.34,545.19,200,546.89Z" transform="translate(-173.92 -296.83)"/><path d="M200,546.89c5.45-4,11.18-7,18.22-4.95a3.77,3.77,0,0,0,3.23-.17C232.4,536,242,529,245.16,516a9.69,9.69,0,0,1,1.11-2.23c1.27-2.28,3.47-3.87,5.73-2.81,2.43,1.14,2.15,4.27,1,6.13-2,3.16-1.05,5.25,1.59,7.53a18,18,0,0,0,3.58-9.36c1.71-12.6.25-24.9-3.3-37-1.64-5.59-3.07-11.23-4.64-16.84-0.44-1.56-.62-3.67-2.9-3.37-2.57.34-5,.68-7-1.42-3.09-3.3-6.69-6.74-7.09-11.23-0.75-8.43-5.22-16-4.56-24.8,0.55-7.31.5-7.93,7.78-7.71,3.21,0.1,3.51-1.74,3.51-4.13a234.41,234.41,0,0,1,.87-25c2.25-21.21,10.92-38.93,28-52.14a45.2,45.2,0,0,1,27.33-9.6c4.26-.08,8.33-3.21,12.92-0.12,3,2,6.57,3.08,8.42,6.91l3.7-3.95c1,6,4.48,9.54,8.09,13.35,6,6.32,6.38,14.45,3.72,22.37-2.53,7.53,0,14.23,7.42,16.64,5.28,1.71,11.37,1.89,13.23,8.82,0.21,0.78,1.91,1.17,2.92,1.74,1.46,0.85.17,1.37-.34,1.4-3.68.24-3,2.39-2.16,4.67l-0.06,0c1.82,3.56-3.07,1.32-2.93,3.43,0.67,3-2.44,1.46-3.25,2.69,2.84,4,1.17,7.15-1.78,10.11-1,1.28-.66,2.69-0.22,4,0.57,1.65,0,2.39-1.6,2.53-6.68-3.42-12.53-7.84-16.78-14.15-0.66-1.63-1.41-2.51-2.57-.33a2.89,2.89,0,0,1-2.49-.93c-1.2-1-1.09-2.74-2.82-4.8-0.29,8.08-2.36,15.28,2.06,22.08,2.78,4.13,2.71,8.28.56,12.74-2.59,5.36-1.38,7.78,4.6,10.33,1.18-.23,2.36-0.52,3.5.13,2,1.52,1.73,3.41.87,5.39-1.87,2.36-2.21,4.25,1.13,5.78a67.7,67.7,0,0,1,6.92,4c1.45,0.89,3.45,1.64,2.76,4.09a4.9,4.9,0,0,1-4.35,0l-9.24-1.48c3.81,8.76,2.44,17.26,1.72,25.76-0.47,5.59,3.08,10.09,4.41,15.2,0.3,1.17,1.71.85,2.47,1.38,1.83,1.27,5.2,1.91,2.65,5.38,4.07,7.25-3.57,4.48-5.59,6.51a3.84,3.84,0,0,1-.94.3c-2.57,1.28-6.82.57-7.49,4-0.8,4.06,2.56,6.92,5,9.86,1.66,2,3.3.65,5,.22,1.3-.56,2.72-1.33,2.26,1.26-6,4.65-4.56,11.39-4.88,17.63H290a11.56,11.56,0,0,1-3.64-3.82,4.23,4.23,0,0,0-1.22-1.82c-0.23.66,0.62,0.79,0.66,1.33,0.32,1.47,2,2.55,1.21,4.31H200Z" transform="translate(-173.92 -296.83)"/><path class="7360b235-ba8c-426f-b17a-1fee836615ae" d="M287.28,542.9c1.69,0.8,2.07,2.49,2.72,4h-3c-0.49-1.36-2.51-1.95-1.95-3.85A1.42,1.42,0,0,1,287.28,542.9Z" transform="translate(-173.92 -296.83)"/><path class="b8db9a70-a53a-4c92-a215-5ffabd01bb15" d="M341.74,459.84c-3.51-2.07-6.87-4.48-10.57-6.13-4-1.8-4.19-3.75-1.26-6.58,4.86-.44,2.57-2.77,1.28-4.84a3.81,3.81,0,0,1-.66-3.42,4.19,4.19,0,0,1,1.45-1.68c2.36-1.59,4.78-.88,7.21-0.21a35.27,35.27,0,0,1,14.72,18.82c0.18,1.37,0,2.82.92,4.28,0.13,0.4.58-.68,0.07-0.25-1.64-2.72-.49-6-1.85-8.79-0.67-3-3.14-5.54-2.29-8.93,3.84,2.27,4.75,6.31,5.09,10.09a55.81,55.81,0,0,1-.94,18.19c-0.3,1.25-.5,3-2,3-2-.05-1.82-1.94-1.86-3.42a1.52,1.52,0,0,1,.93-0.66c2.14-2.25.83-3.74-1.1-5.1C348.94,460.37,344.39,462.09,341.74,459.84Z" transform="translate(-173.92 -296.83)"/><path class="56f4c6d7-bc14-48c9-98cc-64c3cbb951f9" d="M352.85,455.61A44.37,44.37,0,0,0,339.4,438c-1.76-1.25-5.71-.5-4.28-4.67a36.31,36.31,0,0,0,.14-13,5.33,5.33,0,0,1-.77-2,1.83,1.83,0,0,1,1.66-2,4.51,4.51,0,0,1,1.4.15c1.14,0.59,2.87.61,2.58,2.62-3.77,3.08.65,5.07,1,7.6,3.2,5.16,5.72,10.74,9.62,15.46l3.21,8.28C354.85,454.41,354.79,454.68,352.85,455.61Z" transform="translate(-173.92 -296.83)"/><path class="ad160504-a112-491d-83c8-bfdbb34ebfa7" d="M343.26,524.79c1.65-.68,3.28-1.4,4.95-2,3.72-1.38,6.11-3.85,6.48-7.93,0.16-1.83,1.19-2.91,2.87-2.58,1.87,0.37,4.38,1,4.17,3.4-0.26,3-.64,6.45-4.55,7.43s-8,1.95-12,2.92C344,526.5,343.51,525.84,343.26,524.79Z" transform="translate(-173.92 -296.83)"/><path class="c4f764ac-f9bd-4728-9b62-bd79ec3e36af" d="M365.49,391c2.78,1.09,5.62,2.06,8.33,3.31,2.44,1.12,3.82,2.72.36,4.33-2.47,1.15-3.26,3.6-4.83,5.6-2-3.94-1.92-8.67-5.23-11.86a1.19,1.19,0,0,1,.18-1.63C364.79,390.35,365.1,390.87,365.49,391Z" transform="translate(-173.92 -296.83)"/><path class="28731662-b63a-4b30-97c4-f14260c93f5c" d="M341.74,459.84a29.1,29.1,0,0,0,4.93.29c3.08-.32,4.43,1.32,5.17,3.92,1.52,2,3.36,4.1-.22,6a4.47,4.47,0,0,0-.61,0c-1.58-7.29-8.37-6.85-13.39-9C338.89,460.2,340.73,461.59,341.74,459.84Z" transform="translate(-173.92 -296.83)"/><path class="30cf8dd1-2de3-4b7c-9978-5cdab9e58c1c" d="M350.05,397.28c-0.85-.19-1.65-0.57-1.62-1.54,0-1.13,1.14-.87,1.85-1.11,1.21-.4,2.9,1.56,3.71-0.76a9.84,9.84,0,0,1,2.6,9c-0.53,2.39-1.53,1.5-2.22-.1l0.11-.45-0.45-.13-1.86-2.35C351.74,398.81,352.19,397,350.05,397.28Z" transform="translate(-173.92 -296.83)"/><path class="e3cd4b8d-2c8a-4251-8911-464ef0480f80" d="M376,427.89l0-1.93c1.06-1.33.28-2.87,0.42-3.37,0,0.52.52,2-.42,3.37-1.83-3-1.84-5.58,2-8.41v11.2C376.79,429.56,376.55,428.35,376,427.89Z" transform="translate(-173.92 -296.83)"/><path class="fb7e09a9-0e6c-4351-b4d1-60005ef4001c" d="M348.74,417.59c3.46,1.27,6.65-.62,10-0.82,1.21-.51,1.41.07,1.2,1.11-2.71,1.72-5.44,3.35-8.78,1.54C350,419.31,348.59,419.46,348.74,417.59Z" transform="translate(-173.92 -296.83)"/><path class="5663abbf-99a9-44ad-989d-9f2440806afd" d="M348.74,417.59c0.41,1.14,1.48,1.39,2.42,1.83-0.82,1.28-1.94.83-3,.52-0.86-1.51-2.91-.22-3.82-1.63-0.42-.77-0.9-1.53-0.25-2.41,1.28-.19,1.36-0.84,1.1-2s-0.91-2.89.9-3.78A9,9,0,0,0,348.74,417.59Z" transform="translate(-173.92 -296.83)"/><path class="9f473c2a-be07-4461-9f94-18b05cc800ab" d="M345,418.35c1.38-.13,3.06-0.84,3.14,1.59a6.7,6.7,0,0,1-4.24,0c-1-1.27-2.8.06-3.89-1.06-0.57-1.25-2.49-.6-2.91-2.06C340.18,414.9,342.63,416.33,345,418.35Z" transform="translate(-173.92 -296.83)"/><path class="0144306e-50ac-47fd-a577-f8f4bdb968c9" d="M340,418.89c1.34,0.2,2.93-.53,3.89,1.06l-4.59.56,1.85,6.15C339.59,424.24,335.43,422.21,340,418.89Z" transform="translate(-173.92 -296.83)"/><path class="84c8baa2-a624-45ea-b7f9-ea4524e1f955" d="M354.06,393.91c-3.46-3.8-.43-4.91,2.5-6.07,1.67-.45,3,0.52,4.33,1.15,0.12,2-1.23,1.19-2.19,1.12C355.8,389.72,352.87,389.3,354.06,393.91Z" transform="translate(-173.92 -296.83)"/><path class="fb8f7cb2-ffd2-4513-a1de-3958c8b0be3f" d="M350.05,397.28c1-2.84,2.61-.86,3.42-0.08,1.78,1.71-1.09,1.65-1.29,2.69l-4.36.1C347.45,398.17,351.1,399.65,350.05,397.28Z" transform="translate(-173.92 -296.83)"/><path class="d9075945-3310-49e2-82b1-5c3b6f91e716" d="M337.88,529.26c-0.24-1.33-1.43-1-2.26-1.26,1.35-1.18,2.7-2.36,4.69-2.08,1,0.34,2.25-.14,3,0.92Z" transform="translate(-173.92 -296.83)"/><path class="e9b61591-4041-45d3-8d1a-8c27cab85a7b" d="M358.7,390.11l2.19-1.12a7.12,7.12,0,0,1,4.6,2l-1.37,1.39Z" transform="translate(-173.92 -296.83)"/><path class="4895ec56-beda-4470-8bd6-84a89d1ecd42" d="M376,427.89l1.94,0.85c0,1.43,0,2.86,0,4.65C376.25,431.64,376.08,429.78,376,427.89Z" transform="translate(-173.92 -296.83)"/><path class="2547a443-9e9a-4ca4-91d3-3de5b5e193ec" d="M343.35,526.83c-1-.5-2.39.59-3-0.92,0.8-.86,1.65-1.57,2.95-1.12l2,1.23A1.86,1.86,0,0,1,343.35,526.83Z" transform="translate(-173.92 -296.83)"/><path class="f326d0e8-06f0-48da-bd68-d95e75c136a7" d="M354,402.24c0.42-.59,0-1.66,1-1.89a0.79,0.79,0,0,1,.61.45,1.44,1.44,0,0,1-1.28,2A0.66,0.66,0,0,1,354,402.24Z" transform="translate(-173.92 -296.83)"/><path class="6d8485e7-77be-4f91-872d-22fec1ee4f34" d="M359.93,417.88l-1.2-1.11c1.27-.67,2.87-1.86,3.77-0.2C362.92,417.35,361.25,418.23,359.93,417.88Z" transform="translate(-173.92 -296.83)"/><path class="7360b235-ba8c-426f-b17a-1fee836615ae" d="M320.84,419.06c-3.44-3.74-4-8.29-3-12.94,0.81-3.91-2.55-9.1,3.38-11.59,1.7,1.6,0,4.27,1.73,5.88,0.43,1.58,1.93,2.45,2.59,3.87,0.87,1.68,1.39,3.54,2.58,5.05a3.31,3.31,0,0,1,.41,1.14,5.88,5.88,0,0,0,1.19,3.26,7.4,7.4,0,0,0,2.64,2.57,7.1,7.1,0,0,1,1.05.9c4,4.63,2.26,10.12,2.35,15.34a5.18,5.18,0,0,1-2.56,2.61,1.93,1.93,0,0,1-1.87-.85c-1.52-4-4.4-4.49-8-3.15-1.18-.87-1-2.08-0.51-3.12C324.42,424.52,323.23,421.68,320.84,419.06Z" transform="translate(-173.92 -296.83)"/><path class="451a0b19-7601-4588-911e-5fb34facb4ae" d="M327.94,410.61l0.08-.38c-1.5-1.79-1.67-4.13-2.59-6.17a3.1,3.1,0,0,1-.14-1.51c0.59-2.68,1.79-1.86,3.07-.53,4.27,5.71,10,9.73,15.69,13.88l0.92,2.45-7.91-1.51H337c-1.63-.85-3.79.12-5.18-1.52C330.56,413.7,329,412.36,327.94,410.61Z" transform="translate(-173.92 -296.83)"/><path class="3e30baaf-66fb-41c9-8a91-24ade73948fb" d="M320.84,419.06c3.61,1.63,3.26,4.8,3,7.87-0.12,1.34-1.51,2.72.25,3.93,2.15,2.28,5,2.59,7.89,3l0.9,0.94c0.65,2.52-2.14,1.79-2.84,3-1.09,1.66-1.6,3.69-3.18,5-0.93.68-1.68,1.49-2.79,0-1.46-2-1.84-5-5.27-5.29-1.35-.12-0.32-1.6,0-2.37,1-2.1,2-4.15,3-6.22C323.53,425.45,322.33,422.24,320.84,419.06Z" transform="translate(-173.92 -296.83)"/><path class="d9cecfcd-075d-43b1-9273-76df79396509" d="M331.87,442.37a5.12,5.12,0,0,1,.92,1.1c0.6,1.35,3.72,1.4,2.14,3.83s-3.34.06-5-.17c0.26-1.71,2.18-3.51-.29-5.06A1.16,1.16,0,0,1,331.87,442.37Z" transform="translate(-173.92 -296.83)"/><path class="a3e29db5-14ea-4648-ba0a-4e2c2359b6d7" d="M326.84,442.85l2.2-6c1.41-.86,2.25-0.33,2.71,1.11l-0.62.83c-1.13.66-.81,1.84-1,2.83a1.36,1.36,0,0,0-.5.42Z" transform="translate(-173.92 -296.83)"/><path class="af2cb5d9-a841-494b-9d53-03766f2d8ce2" d="M287.28,542.9l-2.23.15c-0.8-1.12-2.59-1.56-2.25-3.64A4.6,4.6,0,0,1,287.28,542.9Z" transform="translate(-173.92 -296.83)"/><path class="a0b3f0cb-00a4-40c1-9bec-9727d10ac7ff" d="M328.36,402c-1.2-.52-2.46-1.17-2.5,1.06-0.86,0-1.31-.39-1-1.32,0.62-1.28-1.41-3.38,0-3.65C327.23,397.68,327.42,400.47,328.36,402Z" transform="translate(-173.92 -296.83)"/><path class="94d217bc-e556-474a-bf54-11b4861c0fcc" d="M324.86,401.76l1,1.32a3,3,0,0,1,.17.58c0.24,1.33-.17,1.82-1.48,1.14-0.43-1.51-2.1-2.55-1.63-4.39Z" transform="translate(-173.92 -296.83)"/><path class="6bc22f80-6f13-4dc4-b29d-4b6ecfe6ffd8" d="M331.75,438L329,436.87c0.74-1.68,3.2-.18,3.82-2.07l2-2a1.11,1.11,0,0,1,1.23-.13,1,1,0,0,1,.05,1.22c-2,3.77,3.09,2,3.23,4.09C336.85,437.57,334.3,436.93,331.75,438Z" transform="translate(-173.92 -296.83)"/><path class="e0b40ac4-db0b-4001-bf14-0ecb457adee5" d="M352.85,455.61c2.39-1.3.44-3.54,1.13-5.21,2.11,3.42,1.3,7,.51,10.58C353.6,459.26,352.56,457.64,352.85,455.61Z" transform="translate(-173.92 -296.83)"/><path class="175947f5-472d-4511-ad4e-296b29a79681" d="M351.62,470c3.11-1.87.3-4,.22-6,4.36,1.8,2.38,4.59,1,7.12C352.61,471.54,351.89,470.58,351.62,470Z" transform="translate(-173.92 -296.83)"/><path class="3e30baaf-66fb-41c9-8a91-24ade73948fb" d="M330.12,441.65c-1.15-1.47-2.07-2.86,1-2.83l0.73,3.55Z" transform="translate(-173.92 -296.83)"/><path class="451a0b19-7601-4588-911e-5fb34facb4ae" d="M336,432.65l-1.08.12c-0.43-5.4,1.22-11.15-2.72-16,1.58-.88,2.29,0,2.77,1.35l0.84,0.88C337,423.56,336.73,428.1,336,432.65Z" transform="translate(-173.92 -296.83)"/><path class="0144306e-50ac-47fd-a577-f8f4bdb968c9" d="M336,432.65q-0.1-6.8-.19-13.61c2.3,4.88,1.62,9.84.4,14.82Z" transform="translate(-173.92 -296.83)"/><path class="c82c4256-122e-4d07-addf-13a30377055f" d="M334.92,418.17l-2.77-1.35H332c-0.76-.47-1.62-0.9-1.13-2.06a1,1,0,0,1,1.2,0,11.49,11.49,0,0,1,4.86,2.07A2.44,2.44,0,0,0,334.92,418.17Z" transform="translate(-173.92 -296.83)"/><path class="8efbf8f6-bcd0-4761-99d3-d1d6942d628a" d="M376,426v-5.21c1.18,1.79,1.53,3.55,0,5.21h0Z" transform="translate(-173.92 -296.83)"/><path class="6bc22f80-6f13-4dc4-b29d-4b6ecfe6ffd8" d="M332,433.86c-3.92,2.39-6.31.78-7.89-3C327.54,426.73,329.56,427.5,332,433.86Z" transform="translate(-173.92 -296.83)"/><path class="b8f1ecbc-767f-49f2-88a2-28a9623f1051" d="M332.11,414.76l-1.24.51c-0.93.16-1.26-.78-1.95-1.07-0.14-1.24-2.54-1.87-1-3.58A6.21,6.21,0,0,1,332.11,414.76Z" transform="translate(-173.92 -296.83)"/><path class="2195e93a-8c2c-4441-870c-1a51da17cab2" d="M324.56,404.8l1.48-1.13,2,6.56C325.3,409.42,325.64,406.66,324.56,404.8Z" transform="translate(-173.92 -296.83)"/><path class="451a0b19-7601-4588-911e-5fb34facb4ae" d="M328.92,414.19l1.95,1.07L332,416.8C330.15,416.94,329.27,415.89,328.92,414.19Z" transform="translate(-173.92 -296.83)"/></svg>